<svg width="225" height="158" viewBox="0 0 225 158" fill="none" xmlns="http://www.w3.org/2000/svg">
<path d="M99.369 -18.148L68.2679 17.3964L60.2346 11.2469L69.2679 -19.4426L99.369 -18.148Z" fill="url(#paint0_radial_172_4115)"/>
<path d="M51.4668 -19.4426L53.4668 11.2469H45.3754L23.3086 -19.4426H51.4668Z" fill="url(#paint1_radial_172_4115)"/>
<path d="M-8.40999 -15.5587L41.5495 16.4835L39.5495 22.8986L-8.40999 22.9566L-8.40999 -15.5587Z" fill="url(#paint2_radial_172_4115)"/>
<path d="M-11.1028 53.264L39.5495 30.6664L42.7861 37.4632L-27.0004 143.701L-11.1028 53.264Z" fill="url(#paint3_radial_172_4115)"/>
<path d="M19.4755 157.363L47.9646 43.9364H57.6744L74.2132 157.363H19.4755Z" fill="url(#paint4_radial_172_4115)"/>
<path d="M124.82 155.56L64.4712 43.9364L68.3559 37.4632L225 149.363L124.82 155.56Z" fill="url(#paint5_radial_172_4115)"/>
<path d="M225 -37L71.2679 22.8986L71.2679 29.0481L225 72.1527L225 -37Z" fill="url(#paint6_radial_172_4115)"/>
<path d="M65.7862 43.2966C68.2973 41.3042 72.1378 37.8554 72.5079 35.7561L44.2361 7.8222C42.0741 9.77141 39.4432 12.358 38.013 14.2106C35.9301 16.9087 37.7298 18.443 37.0213 20.4889C36.3129 22.5348 34.4846 21.6681 34.0966 25.3444C33.7086 29.0208 36.8308 31.2094 37.735 32.3155C38.6392 33.4216 38.0376 36.255 39.8005 38.9996C41.5633 41.7441 44.821 41.7282 46.5674 42.2647C49.5243 43.1732 49.9583 46.7681 53.7596 46.9842C56.4021 47.1345 56.0055 45.4509 59.0864 44.242C61.46 43.3107 63.2752 45.289 65.7862 43.2966Z" fill="#06997E" stroke="#282C3F" stroke-width="1.13192"/>
<g clip-path="url(#clip0_172_4115)">
<path d="M62.4054 9.23164C58.9312 6.67406 59.2593 5.28098 56.3192 5.07219C53.3791 4.86339 52.2255 7.0843 49.946 7.61051C47.6666 8.13672 45.2131 5.86112 43.3728 8.73011C41.5325 11.5991 43.0896 12.9625 42.3812 15.0084C41.6727 17.0543 39.8444 16.1876 39.4564 19.8639C39.0684 23.5403 42.1907 25.7289 43.0949 26.835C43.9991 27.9411 43.3974 30.7745 45.1603 33.5191C46.9232 36.2636 50.1809 36.2477 51.9272 36.7842C54.8841 37.6927 55.3181 41.2876 59.1195 41.5037C61.7619 41.654 61.3653 39.9704 64.4462 38.7615C66.8198 37.8302 68.635 39.8085 71.146 37.8161C73.6571 35.8237 72.0168 33.5224 72.3869 31.423C72.757 29.3237 75.1753 30.3607 75.4367 26.5102C75.698 22.6597 72.9475 20.7995 71.5546 19.6162C70.1617 18.4329 71.6164 14.3471 68.8662 11.7549C66.116 9.16265 63.8106 10.2662 62.4054 9.23164Z" fill="#4EC0A9" stroke="#282C3F" stroke-width="1.13192"/>
<ellipse cx="2.49086" cy="2.0548" rx="2.49086" ry="2.0548" transform="matrix(-0.660026 -0.751243 -0.751243 0.660026 65.4068 19.3118)" fill="white"/>
<ellipse cx="2.49086" cy="2.0548" rx="2.49086" ry="2.0548" transform="matrix(-0.660026 -0.751243 -0.751243 0.660026 55.8017 28.0206)" fill="white"/>
<path d="M65.6951 32.3686L49.0273 13.9553" stroke="white" stroke-width="2.26383" stroke-linecap="round"/>
</g>
<defs>
<radialGradient id="paint0_radial_172_4115" cx="0" cy="0" r="1" gradientUnits="userSpaceOnUse" gradientTransform="translate(58.5 31.5) rotate(92.559) scale(179.179 177.111)">
<stop stop-color="#DFFCF0"/>
<stop offset="1" stop-color="#DFFCF0" stop-opacity="0"/>
</radialGradient>
<radialGradient id="paint1_radial_172_4115" cx="0" cy="0" r="1" gradientUnits="userSpaceOnUse" gradientTransform="translate(58.5 31.5) rotate(92.559) scale(179.179 177.111)">
<stop stop-color="#DFFCF0"/>
<stop offset="1" stop-color="#DFFCF0" stop-opacity="0"/>
</radialGradient>
<radialGradient id="paint2_radial_172_4115" cx="0" cy="0" r="1" gradientUnits="userSpaceOnUse" gradientTransform="translate(58.5 31.5) rotate(92.559) scale(179.179 177.111)">
<stop stop-color="#DFFCF0"/>
<stop offset="1" stop-color="#DFFCF0" stop-opacity="0"/>
</radialGradient>
<radialGradient id="paint3_radial_172_4115" cx="0" cy="0" r="1" gradientUnits="userSpaceOnUse" gradientTransform="translate(58.5 31.5) rotate(92.559) scale(179.179 177.111)">
<stop stop-color="#DFFCF0"/>
<stop offset="1" stop-color="#DFFCF0" stop-opacity="0"/>
</radialGradient>
<radialGradient id="paint4_radial_172_4115" cx="0" cy="0" r="1" gradientUnits="userSpaceOnUse" gradientTransform="translate(58.5 31.5) rotate(92.559) scale(179.179 177.111)">
<stop stop-color="#DFFCF0"/>
<stop offset="1" stop-color="#DFFCF0" stop-opacity="0"/>
</radialGradient>
<radialGradient id="paint5_radial_172_4115" cx="0" cy="0" r="1" gradientUnits="userSpaceOnUse" gradientTransform="translate(58.5 31.5) rotate(92.559) scale(179.179 177.111)">
<stop stop-color="#DFFCF0"/>
<stop offset="1" stop-color="#DFFCF0" stop-opacity="0"/>
</radialGradient>
<radialGradient id="paint6_radial_172_4115" cx="0" cy="0" r="1" gradientUnits="userSpaceOnUse" gradientTransform="translate(58.5 31.5) rotate(92.559) scale(179.179 177.111)">
<stop stop-color="#DFFCF0"/>
<stop offset="1" stop-color="#DFFCF0" stop-opacity="0"/>
</radialGradient>
<clipPath id="clip0_172_4115">
<rect width="49.894" height="50.194" fill="white" transform="matrix(-0.987755 -0.156012 0.0619771 0.998078 76.7032 5.55505)"/>
</clipPath>
</defs>
</svg>
